<svg width="250" height="250" viewBox="0 0 250 250" class="css-1j8o68f"><defs id="SvgjsDefs1041"></defs><g id="SvgjsG1042" featurekey="mugSzh-0" transform="matrix(0.34101679037726546,0,0,0.34101679037726546,53.19986557377308,-13.189164937129837)" fill="#fe0435"><g xmlns="http://www.w3.org/2000/svg"><g><g><g><path d="M359.938,473.323h-28.347c-2.106,0-3.959-1.396-4.541-3.42l-63.135-219.679c-0.622-2.163,0.369-4.464,2.368-5.5      c1.996-1.036,4.447-0.518,5.858,1.238c9.934,12.385,24.715,19.487,40.552,19.487c12.801,0,25.104-4.704,34.644-13.244      c1.794-1.606,4.509-1.606,6.303,0c9.54,8.54,21.843,13.244,34.644,13.244c15.259,0,29.693-6.684,39.601-18.336      c1.464-1.72,3.94-2.164,5.908-1.062c1.97,1.104,2.884,3.447,2.182,5.593l-71.547,218.424      C363.791,472.01,361.979,473.323,359.938,473.323z M335.148,463.874h21.364l65.129-198.83      c-9.835,6.372-21.381,9.854-33.358,9.854c-13.755,0-27.024-4.594-37.795-13.015c-10.771,8.421-24.04,13.015-37.795,13.015      c-12.71,0-24.844-3.869-34.998-10.934L335.148,463.874z"></path></g><g><path d="M388.283,274.898c-13.755,0-27.024-4.594-37.795-13.015c-10.771,8.421-24.04,13.015-37.795,13.015      c-18.718,0-36.186-8.392-47.923-23.022c-8.702-10.85-13.495-24.485-13.495-38.396c0-25.943,16.396-49.001,40.448-57.73      c-1.763-5.781-2.652-11.769-2.652-17.861c0-33.866,27.552-61.417,61.417-61.417s61.417,27.551,61.417,61.417      c0,6.092-0.891,12.08-2.652,17.861c24.052,8.729,40.448,31.787,40.448,57.73c0,14.548-5.191,28.667-14.618,39.754      C423.376,267.003,406.318,274.898,388.283,274.898z M350.488,251.001c1.127,0,2.254,0.401,3.151,1.205      c9.54,8.54,21.843,13.244,34.644,13.244c15.259,0,29.693-6.684,39.601-18.336c7.976-9.381,12.368-21.326,12.368-33.634      c0-23.39-15.75-44.008-38.302-50.14c-1.299-0.353-2.385-1.243-2.986-2.445c-0.602-1.203-0.662-2.606-0.166-3.856      c2.428-6.119,3.659-12.561,3.659-19.149c0-28.655-23.313-51.968-51.969-51.968s-51.969,23.313-51.969,51.968      c0,6.588,1.231,13.031,3.659,19.149c0.496,1.25,0.436,2.653-0.166,3.856c-0.603,1.203-1.688,2.092-2.986,2.445      c-22.552,6.132-38.302,26.75-38.302,50.14c0,11.938,3.948,23.171,11.417,32.483c9.934,12.384,24.715,19.487,40.552,19.487      c12.801,0,25.104-4.704,34.644-13.244C348.234,251.403,349.361,251.001,350.488,251.001z"></path></g><g><path d="M378.835,312.693h-85.04c-2.609,0-4.724-2.115-4.724-4.725s2.114-4.725,4.724-4.725h85.04      c2.609,0,4.724,2.115,4.724,4.725S381.444,312.693,378.835,312.693z"></path></g><rect x="350.488" y="336.315" width="18.897" height="18.897"></rect><rect x="322.142" y="336.315" width="18.897" height="18.897"></rect><rect x="180.41" y="336.315" width="18.897" height="18.897"></rect><rect x="142.614" y="364.661" width="18.897" height="18.897"></rect><rect x="104.819" y="326.866" width="18.897" height="18.897"></rect><rect x="180.41" y="383.559" width="18.897" height="18.898"></rect><rect x="123.716" y="393.008" width="18.898" height="18.897"></rect><rect x="95.37" y="374.11" width="18.897" height="18.897"></rect><g><path d="M227.653,473.323H76.473c-2.609,0-4.725-2.115-4.725-4.725V156.788c0-2.609,2.115-4.725,4.725-4.725h151.181      c2.609,0,4.725,2.115,4.725,4.725v311.811C232.378,471.208,230.263,473.323,227.653,473.323z M81.197,463.874h141.732V161.512      H81.197V463.874z"></path></g><g><path d="M227.653,473.323H76.473c-2.609,0-4.725-2.115-4.725-4.725v-160.63c0-2.609,2.115-4.725,4.725-4.725h151.181      c2.609,0,4.725,2.115,4.725,4.725v160.63C232.378,471.208,230.263,473.323,227.653,473.323z M81.197,463.874h141.732V312.693      H81.197V463.874z"></path></g><g><path d="M227.653,473.323H76.473c-2.609,0-4.725-2.115-4.725-4.725v-37.796c0-2.609,2.115-4.724,4.725-4.724h151.181      c2.609,0,4.725,2.114,4.725,4.724v37.796C232.378,471.208,230.263,473.323,227.653,473.323z M81.197,463.874h141.732v-28.347      H81.197V463.874z"></path></g><g><path d="M161.506,350.489c-2.28,0-4.287-1.655-4.659-3.979l-37.361-233.509L46.467,85.621c-2.443-0.917-3.681-3.64-2.765-6.083      c0.917-2.442,3.64-3.682,6.083-2.765l75.59,28.346c1.59,0.596,2.738,2,3.006,3.677l37.795,236.221      c0.413,2.576-1.342,4.999-3.918,5.411C162.005,350.47,161.754,350.489,161.506,350.489z"></path></g><g><path d="M328.548,209.669c-5.14,0-10.589-0.299-16.376-0.942c-2.594-0.288-4.463-2.624-4.175-5.217s2.627-4.464,5.217-4.174      c50.565,5.616,73.112-16.085,83.124-35.282c0.009-0.016,0.017-0.031,0.025-0.046c1.161-2.232,2.212-4.554,3.122-6.901      c0.943-2.433,3.682-3.64,6.112-2.698c2.434,0.943,3.642,3.68,2.698,6.113c-1.042,2.687-2.245,5.344-3.577,7.897      c-0.009,0.017-0.017,0.033-0.026,0.049C396.281,184.57,375.603,209.667,328.548,209.669z"></path></g><g><path d="M463.874,473.323H274.897c-2.609,0-4.725-2.115-4.725-4.725s2.115-4.725,4.725-4.725h188.977      c2.609,0,4.725,2.115,4.725,4.725S466.483,473.323,463.874,473.323z"></path></g></g><g><g><path d="M231.487,127.8c-6.663,0-13.881-0.659-21.524-1.356c-6.862-0.626-13.958-1.273-21.48-1.54      c-2.478-0.088-4.466-2.077-4.554-4.555c-0.266-7.511-0.911-14.597-1.534-21.45c-1.954-21.475-3.642-40.022,9.264-52.927      c4.705-4.705,11.063-7.296,17.905-7.296c7.329,0,14.594,3.062,19.933,8.4c7.8,7.8,9.314,15.62,7.896,24.367      c1.959-0.317,3.771-0.471,5.494-0.471c7.167,0,13.164,2.658,18.87,8.364c10.747,10.747,11.251,27.729,1.123,37.857      c-9.399,9.4-21.711,10.606-31.387,10.606C231.491,127.8,231.489,127.8,231.487,127.8z M193.177,115.656      c6.151,0.33,11.976,0.861,17.644,1.378c7.425,0.677,14.438,1.317,20.671,1.316c11.823,0,19.212-2.344,24.706-7.838      c6.443-6.443,5.939-17.432-1.123-24.494c-3.923-3.922-7.568-5.596-12.189-5.596c-2.826,0-6.165,0.609-10.506,1.918      c-1.666,0.502-3.474,0.049-4.704-1.182c-1.23-1.23-1.685-3.038-1.183-4.705c3.335-11.062,2.441-16.577-3.678-22.695      c-3.58-3.58-8.41-5.633-13.251-5.633c-4.318,0-8.304,1.608-11.224,4.529c-9.775,9.775-8.345,25.492-6.535,45.389      C192.319,103.703,192.849,109.517,193.177,115.656z"></path></g></g></g></g></g><g id="SvgjsG1043" featurekey="PPkF4s-0" transform="matrix(1.6127177576940361,0,0,1.6127177576940361,-2.5158392252203696,160.54924414401447)" fill="#000000"><path d="M4.7 20 l-3.14 0 l0 -15.08 l10.08 8.92 l0 -8.44 l3.16 0 l0 15.06 l-10.1 -8.78 l0 8.32 z M20.74 7.369999999999999 q-0.48 0.47 -1.16 0.47 q-0.7 0 -1.19 -0.47 t-0.49 -1.15 q0 -0.66 0.49 -1.13 t1.19 -0.47 q0.68 0 1.16 0.47 t0.48 1.13 q0 0.68 -0.48 1.15 z M18.08 9.02 l3 0 l0 10.98 l-3 0 l0 -10.98 z M33.870000000000005 22.77 q-1.47 1.37 -4.09 1.37 q-3.14 0 -5.26 -1.66 l1.46 -2.12 q0.68 0.54 1.61 0.88 t1.97 0.34 q2.82 0 2.82 -2.56 l0 -0.18 q-1.2 0.98 -3.08 0.98 q-1.74 0 -3.06 -0.73 t-2.02 -1.99 t-0.7 -2.78 q0 -1.54 0.7 -2.79 t2.01 -1.99 t3.07 -0.74 q1.88 0 3.08 0.98 l0 -0.78 l2.96 0 l0 10.02 q0 2.38 -1.47 3.75 z M31.009999999999998 16.91 q0.69 -0.39 1.09 -1.08 t0.4 -1.51 q0 -0.84 -0.4 -1.52 t-1.09 -1.07 t-1.53 -0.39 q-1.36 0 -2.19 0.85 t-0.83 2.13 q0 1.32 0.81 2.15 t2.21 0.83 q0.84 0 1.53 -0.39 z M47.550000000000004 10.02 q1.03 1.22 1.03 3.48 l0 6.5 l-3.04 0 l0 -6.5 q0 -1.18 -0.59 -1.7 t-1.55 -0.52 q-0.82 0 -1.48 0.65 t-0.62 2.25 l0 5.82 l-2.98 0 l0 -15.14 l2.98 0 l0 5.12 q0.54 -0.54 1.36 -0.86 t1.58 -0.32 q2.28 0 3.31 1.22 z M55.2 16.08 q0 0.7 0.24 1.17 t1.12 0.47 q0.4 0 0.76 -0.04 l0 2.52 q-0.72 0.08 -1.34 0.08 q-1.28 0 -2.07 -0.21 t-1.23 -0.81 t-0.44 -1.72 l0 -6.1 l-1.34 0 l0 -2.62 l1.34 0 l0 -2.94 l2.96 0 l0 2.94 l2.2 0 l0 2.62 l-2.2 0 l0 4.64 z M76.7 20 l-10.84 0 l0 -14.62 l3.18 0 l0 11.88 l7.66 0 l0 2.74 z M81.26000000000002 7.369999999999999 q-0.48 0.47 -1.16 0.47 q-0.7 0 -1.19 -0.47 t-0.49 -1.15 q0 -0.66 0.49 -1.13 t1.19 -0.47 q0.68 0 1.16 0.47 t0.48 1.13 q0 0.68 -0.48 1.15 z M78.60000000000001 9.02 l3 0 l0 10.98 l-3 0 l0 -10.98 z M88.06 20 l-3 0 l0 -8.26 l-1.24 0 l0 -2.56 l1.24 0 q0.08 -2.14 1.22 -3.26 t3.16 -1.12 q0.6 0 1.32 0.18 l-0.16 2.42 q-0.38 -0.12 -0.82 -0.12 q-1.08 0 -1.4 0.54 t-0.32 1.36 l1.98 0 l0 2.56 l-1.98 0 l0 8.26 z M94.97 19.74 q-1.37 -0.54 -2.35 -1.83 t-0.98 -3.37 t0.99 -3.36 t2.37 -1.82 t2.62 -0.54 q1.44 0 2.74 0.64 t2.13 1.88 t0.87 2.94 q0 0.52 -0.02 0.9 t-0.04 0.48 l-8.68 0 q0.24 1.16 1.2 1.58 t1.8 0.42 q1.08 0 1.72 -0.39 t1.1 -0.89 l2.32 1.34 q-1.88 2.56 -5.14 2.56 q-1.28 0 -2.65 -0.54 z M95.58 12.05 q-0.78 0.61 -0.88 1.49 l5.5 0 q-0.06 -0.52 -0.4 -1 t-0.91 -0.79 t-1.29 -0.31 q-1.24 0 -2.02 0.61 z M114.26 19.51 q-1.38 -0.77 -2.19 -2.09 t-0.81 -2.88 t0.81 -2.87 t2.18 -2.08 t2.99 -0.77 q1.74 0 3.15 0.83 t2.25 2.37 l-2.7 1.06 q-0.48 -0.82 -1.18 -1.23 t-1.52 -0.41 q-1.3 0 -2.15 0.88 t-0.85 2.22 t0.86 2.22 t2.16 0.88 q1.8 0 2.78 -1.6 l2.54 1 q-1.58 3.24 -5.32 3.24 q-1.62 0 -3 -0.77 z M134.03 10.02 q1.03 1.22 1.03 3.48 l0 6.5 l-3.04 0 l0 -6.5 q0 -1.18 -0.59 -1.7 t-1.55 -0.52 q-0.82 0 -1.48 0.65 t-0.62 2.25 l0 5.82 l-2.98 0 l0 -15.14 l2.98 0 l0 5.12 q0.54 -0.54 1.36 -0.86 t1.58 -0.32 q2.28 0 3.31 1.22 z M140.43 19.49 q-1.37 -0.77 -2.17 -2.09 t-0.8 -2.88 q0 -1.54 0.8 -2.86 t2.17 -2.09 t2.99 -0.77 t3 0.77 t2.19 2.09 t0.81 2.86 q0 1.56 -0.81 2.88 t-2.19 2.09 t-3 0.77 t-2.99 -0.77 z M141.9 11.83 q-0.7 0.41 -1.1 1.12 t-0.4 1.57 q0 0.9 0.39 1.61 t1.08 1.12 t1.55 0.41 q0.84 0 1.53 -0.41 t1.09 -1.13 t0.4 -1.6 q0 -0.86 -0.4 -1.57 t-1.09 -1.12 t-1.53 -0.41 q-0.82 0 -1.52 0.41 z M154.82 10.1 q0.38 -0.52 1.31 -0.93 t2.03 -0.41 q1.7 0 2.95 0.76 t1.91 2.07 t0.66 2.91 t-0.66 2.91 t-1.91 2.07 t-2.95 0.76 q-1.14 0 -2.01 -0.39 t-1.33 -0.99 l0 4.68 l-2.96 0 l0 -14.54 l2.96 0 l0 1.1 z M155.51999999999998 16.75 q0.82 0.87 2.2 0.87 q1.4 0 2.21 -0.87 t0.81 -2.25 q0 -1.34 -0.83 -2.22 t-2.19 -0.88 q-1.4 0 -2.21 0.83 t-0.81 2.27 q0 1.38 0.82 2.25 z M165.49999999999997 18.54 l1.56 -2.08 q0.72 0.5 1.68 0.84 t1.88 0.34 q0.68 0 1.13 -0.28 t0.45 -0.7 t-0.51 -0.59 t-0.99 -0.24 t-0.62 -0.09 q-1.2 -0.2 -2.07 -0.48 t-1.58 -1 t-0.71 -1.98 q0 -2.08 1.51 -2.78 t3.03 -0.7 q1.3 0 2.4 0.38 t2.18 1.2 l-1.56 2.04 q-0.78 -0.46 -1.54 -0.74 t-1.58 -0.28 q-0.5 0 -0.97 0.22 t-0.47 0.6 q0 0.48 0.65 0.68 t1.43 0.3 q1.4 0.24 2.24 0.5 t1.49 0.97 t0.65 2.01 q0 1.72 -1.18 2.65 t-3.34 0.93 q-3 0 -5.16 -1.72 z"></path></g><g id="SvgjsG1044" featurekey="uwAHB0-0" transform="matrix(0.5943536549282934,0,0,0.5943536549282934,35.39375899989963,205.74294280988627)" fill="#2a2e2a"><path d="M2.34 12.92 q0 2.7 1.66 4.45 t4.34 1.79 q2.7 0 4.34 -1.77 t1.66 -4.47 q0 -2.74 -1.64 -4.47 t-4.38 -1.77 q-2.68 0 -4.32 1.76 t-1.66 4.48 z M8.34 5.48 q2.16 0 3.82 0.95 t2.57 2.66 t0.93 3.83 q0 3.26 -2.06 5.33 t-5.26 2.11 q-3.22 0 -5.24 -2.09 t-2.08 -5.35 q0.02 -3.26 2.04 -5.32 t5.28 -2.12 z M30.988 5.84 l8.62 12.4 l0.04 0 l0 -12.4 l1.32 0 l0 14.16 l-1.7 0 l-8.62 -12.4 l-0.04 0 l0 12.4 l-1.32 0 l0 -14.16 l1.7 0 z M56.836 5.84 l0 12.96 l6.6 0 l0 1.2 l-7.92 0 l0 -14.16 l1.32 0 z M77.504 5.84 l0 14.16 l-1.32 0 l0 -14.16 l1.32 0 z M93.752 5.84 l8.62 12.4 l0.04 0 l0 -12.4 l1.32 0 l0 14.16 l-1.7 0 l-8.62 -12.4 l-0.04 0 l0 12.4 l-1.32 0 l0 -14.16 l1.7 0 z M126.94 5.84 l0 1.2 l-7.34 0 l0 5.04 l6.88 0 l0 1.2 l-6.88 0 l0 5.52 l7.66 0 l0 1.2 l-8.98 0 l0 -14.16 l8.66 0 z M165.15599999999998 5.84 l0 1.2 l-7.16 0 l0 5.04 l6.66 0 l0 1.2 l-6.66 0 l0 6.72 l-1.32 0 l0 -14.16 l8.48 0 z M180.124 15.04 l6.5 0 l-3.2 -7.76 z M184.164 5.84 l5.96 14.16 l-1.48 0 l-1.54 -3.76 l-7.5 0 l-1.6 3.76 l-1.38 0 l6.18 -14.16 l1.36 0 z M206.87199999999999 5.48 q2.46 0 3.86 1.78 l-1.14 0.82 q-1.04 -1.4 -2.76 -1.4 q-1.4 0 -2.27 0.72 t-0.91 1.96 q0 1.08 0.66 1.75 t2.3 1.13 q2.16 0.64 2.88 1.13 t1.09 1.21 t0.37 1.8 q0 1.72 -1.23 2.83 t-3.17 1.15 q-3.06 0 -4.6 -2.14 l1.26 -0.84 q1.06 1.76 3.24 1.78 q1.42 0 2.3 -0.79 t0.88 -1.99 q0 -0.7 -0.25 -1.15 t-0.76 -0.78 t-1.3 -0.6 t-1.85 -0.63 q-1.6 -0.52 -2.37 -1.46 t-0.77 -2.4 q0 -1.72 1.29 -2.8 t3.25 -1.08 z M233.92000000000002 5.84 l0 1.2 l-4.84 0 l0 12.96 l-1.32 0 l0 -12.96 l-4.84 0 l0 -1.2 l11 0 z M271.11600000000004 5.84 l0 1.2 l-7.16 0 l0 5.04 l6.66 0 l0 1.2 l-6.66 0 l0 6.72 l-1.32 0 l0 -14.16 l8.48 0 z M284.824 12.92 q0 2.7 1.66 4.45 t4.34 1.79 q2.7 0 4.34 -1.77 t1.66 -4.47 q0 -2.74 -1.64 -4.47 t-4.38 -1.77 q-2.68 0 -4.32 1.76 t-1.66 4.48 z M290.824 5.48 q2.16 0 3.82 0.95 t2.57 2.66 t0.93 3.83 q0 3.26 -2.06 5.33 t-5.26 2.11 q-3.22 0 -5.24 -2.09 t-2.08 -5.35 q0.02 -3.26 2.04 -5.32 t5.28 -2.12 z M312.172 12.92 q0 2.7 1.66 4.45 t4.34 1.79 q2.7 0 4.34 -1.77 t1.66 -4.47 q0 -2.74 -1.64 -4.47 t-4.38 -1.77 q-2.68 0 -4.32 1.76 t-1.66 4.48 z M318.172 5.48 q2.16 0 3.82 0.95 t2.57 2.66 t0.93 3.83 q0 3.26 -2.06 5.33 t-5.26 2.11 q-3.22 0 -5.24 -2.09 t-2.08 -5.35 q0.02 -3.26 2.04 -5.32 t5.28 -2.12 z M343.08000000000004 18.8 q3.04 0 4.8 -1.54 t1.78 -4.24 q0 -2.88 -1.75 -4.42 t-4.89 -1.56 l-2.76 0 l0 11.76 l2.82 0 z M343.36000000000007 5.84 q3.56 0 5.57 1.92 t2.05 5.26 q0 1.96 -0.89 3.55 t-2.56 2.51 t-4.09 0.92 l-4.5 0 l0 -14.16 l4.42 0 z"></path></g></svg>